{"asset":{"version":"2.0","generator":"Blockbench 4.9.4 glTF exporter"},"scenes":[{"nodes":[1],"name":"blockbench_export"}],"scene":0,"nodes":[{"name":"bone"},{"name":"bone","mesh":0,"children":[0],"skin":0}],"bufferViews":[{"buffer":0,"byteOffset":0,"byteLength":16896,"target":34962,"byteStride":12},{"buffer":0,"byteOffset":16896,"byteLength":16896,"target":34962,"byteStride":12},{"buffer":0,"byteOffset":33792,"byteLength":11264,"target":34962,"byteStride":8},{"buffer":0,"byteOffset":45056,"byteLength":11264,"target":34962,"byteStride":8},{"buffer":0,"byteOffset":56320,"byteLength":22528,"target":34962,"byteStride":16},{"buffer":0,"byteOffset":78848,"byteLength":4224,"target":34963},{"buffer":0,"byteOffset":83072,"byteLength":64}],"buffers":[{"byteLength":83136,"uri":"data:application/octet-stream;base64,"}],"accessors":[{"bufferView":0,"componentType":5126,"count":1408,"max":[0.40625,0.15625,0.40625],"min":[-0.40625,0,-0.40625],"type":"VEC3"},{"bufferView":1,"componentType":5126,"count":1408,"max":[1,1,1],"min":[-1,-1,-1],"type":"VEC3"},{"bufferView":2,"componentType":5126,"count":1408,"max":[0.96875,0.984375],"min":[0.015625,0.015625],"type":"VEC2"},{"bufferView":3,"componentType":5123,"count":1408,"max":[0,0,0,0],"min":[0,0,0,0],"type":"VEC4"},{"bufferView":4,"componentType":5126,"count":1408,"max":[0,1,0,0],"min":[0,1,0,0],"type":"VEC4"},{"bufferView":5,"componentType":5123,"count":2112,"max":[1407],"min":[0],"type":"SCALAR"},{"bufferView":6,"componentType":5126,"count":1,"max":[1,0,0,0,0,1,0,0,0,0,1,0,0,0,0,1],"min":[1,0,0,0,0,1,0,0,0,0,1,0,0,0,0,1],"type":"MAT4"}],"materials":[{"pbrMetallicRoughness":{"metallicFactor":0,"roughnessFactor":1,"baseColorTexture":{"index":0}},"alphaMode":"MASK","alphaCutoff":0.05,"doubleSided":true}],"textures":[{"sampler":0,"source":0}],"samplers":[{"magFilter":9728,"minFilter":9728,"wrapS":33071,"wrapT":33071}],"images":[{"mimeType":"image/png","uri":"data:image/png;base64,"}],"meshes":[{"primitives":[{"mode":4,"attributes":{"POSITION":0,"NORMAL":1,"TEXCOORD_0":2,"JOINTS_0":3,"WEIGHTS_0":4},"indices":5,"material":0}]}],"skins":[{"inverseBindMatrices":6,"joints":[0],"skeleton":0}]}