{
	"asset":{
		"generator":"Khronos glTF Blender I/O v4.0.44",
		"version":"2.0"
	},
	"scene":0,
	"scenes":[
		{
			"name":"Scene",
			"nodes":[
				0,
				1,
				2,
				3
			]
		}
	],
	"nodes":[
		{
			"mesh":0,
			"name":"Table"
		},
		{
			"mesh":1,
			"name":"Card pull deck",
			"scale":[
				0.17358440160751343,
				0.17358440160751343,
				0.17358440160751343
			],
			"translation":[
				-1.381244421005249,
				0.17424988746643066,
				0
			]
		},
		{
			"mesh":2,
			"name":"Checker Board"
		},
		{
			"mesh":3,
			"name":"discard pile",
			"scale":[
				0.17358440160751343,
				0.17358440160751343,
				0.17358440160751343
			],
			"translation":[
				1.3926688432693481,
				0.17424988746643066,
				0
			]
		}
	],
	"materials":[
		{
			"doubleSided":true,
			"name":"Material",
			"pbrMetallicRoughness":{
				"baseColorTexture":{
					"index":0
				},
				"metallicFactor":0,
				"roughnessFactor":0.5
			}
		},
		{
			"doubleSided":true,
			"name":"Material.001",
			"pbrMetallicRoughness":{
				"baseColorTexture":{
					"index":1
				},
				"metallicFactor":0,
				"roughnessFactor":0.5
			}
		}
	],
	"meshes":[
		{
			"name":"Cube.001",
			"primitives":[
				{
					"attributes":{
						"POSITION":0,
						"NORMAL":1,
						"TEXCOORD_0":2
					},
					"indices":3,
					"material":0
				}
			]
		},
		{
			"name":"Cube.002",
			"primitives":[
				{
					"attributes":{
						"POSITION":4,
						"NORMAL":5,
						"TEXCOORD_0":6
					},
					"indices":7
				}
			]
		},
		{
			"name":"Cube.003",
			"primitives":[
				{
					"attributes":{
						"POSITION":8,
						"NORMAL":9,
						"TEXCOORD_0":10
					},
					"indices":11,
					"material":1
				}
			]
		},
		{
			"name":"Cube.005",
			"primitives":[
				{
					"attributes":{
						"POSITION":12,
						"NORMAL":13,
						"TEXCOORD_0":14
					},
					"indices":7
				}
			]
		}
	],
	"textures":[
		{
			"sampler":0,
			"source":0
		},
		{
			"sampler":0,
			"source":1
		}
	],
	"images":[
		{
			"mimeType":"image/png",
			"name":"table",
			"uri":"table.png"
		},
		{
			"mimeType":"image/png",
			"name":"checkardboard",
			"uri":"checkardboard.png"
		}
	],
	"accessors":[
		{
			"bufferView":0,
			"componentType":5126,
			"count":268,
			"max":[
				1.7801339626312256,
				-0.04264110326766968,
				1.2364925146102905
			],
			"min":[
				-1.7564873695373535,
				-1.9297820329666138,
				-1.2491505146026611
			],
			"type":"VEC3"
		},
		{
			"bufferView":1,
			"componentType":5126,
			"count":268,
			"type":"VEC3"
		},
		{
			"bufferView":2,
			"componentType":5126,
			"count":268,
			"type":"VEC2"
		},
		{
			"bufferView":3,
			"componentType":5123,
			"count":492,
			"type":"SCALAR"
		},
		{
			"bufferView":4,
			"componentType":5126,
			"count":144,
			"max":[
				1,
				-0.27955883741378784,
				1.4032137393951416
			],
			"min":[
				-1,
				-1.2522177696228027,
				-1.4032137393951416
			],
			"type":"VEC3"
		},
		{
			"bufferView":5,
			"componentType":5126,
			"count":144,
			"type":"VEC3"
		},
		{
			"bufferView":6,
			"componentType":5126,
			"count":144,
			"type":"VEC2"
		},
		{
			"bufferView":7,
			"componentType":5123,
			"count":276,
			"type":"SCALAR"
		},
		{
			"bufferView":8,
			"componentType":5126,
			"count":844,
			"max":[
				1,
				0.17591190338134766,
				1
			],
			"min":[
				-1,
				-0.04264110326766968,
				-1
			],
			"type":"VEC3"
		},
		{
			"bufferView":9,
			"componentType":5126,
			"count":844,
			"type":"VEC3"
		},
		{
			"bufferView":10,
			"componentType":5126,
			"count":844,
			"type":"VEC2"
		},
		{
			"bufferView":11,
			"componentType":5123,
			"count":1332,
			"type":"SCALAR"
		},
		{
			"bufferView":12,
			"componentType":5126,
			"count":144,
			"max":[
				1,
				-0.27955883741378784,
				1.4032137393951416
			],
			"min":[
				-1,
				-1.2522177696228027,
				-1.4032137393951416
			],
			"type":"VEC3"
		},
		{
			"bufferView":13,
			"componentType":5126,
			"count":144,
			"type":"VEC3"
		},
		{
			"bufferView":14,
			"componentType":5126,
			"count":144,
			"type":"VEC2"
		}
	],
	"bufferViews":[
		{
			"buffer":0,
			"byteLength":3216,
			"byteOffset":0,
			"target":34962
		},
		{
			"buffer":0,
			"byteLength":3216,
			"byteOffset":3216,
			"target":34962
		},
		{
			"buffer":0,
			"byteLength":2144,
			"byteOffset":6432,
			"target":34962
		},
		{
			"buffer":0,
			"byteLength":984,
			"byteOffset":8576,
			"target":34963
		},
		{
			"buffer":0,
			"byteLength":1728,
			"byteOffset":9560,
			"target":34962
		},
		{
			"buffer":0,
			"byteLength":1728,
			"byteOffset":11288,
			"target":34962
		},
		{
			"buffer":0,
			"byteLength":1152,
			"byteOffset":13016,
			"target":34962
		},
		{
			"buffer":0,
			"byteLength":552,
			"byteOffset":14168,
			"target":34963
		},
		{
			"buffer":0,
			"byteLength":10128,
			"byteOffset":14720,
			"target":34962
		},
		{
			"buffer":0,
			"byteLength":10128,
			"byteOffset":24848,
			"target":34962
		},
		{
			"buffer":0,
			"byteLength":6752,
			"byteOffset":34976,
			"target":34962
		},
		{
			"buffer":0,
			"byteLength":2664,
			"byteOffset":41728,
			"target":34963
		},
		{
			"buffer":0,
			"byteLength":1728,
			"byteOffset":44392,
			"target":34962
		},
		{
			"buffer":0,
			"byteLength":1728,
			"byteOffset":46120,
			"target":34962
		},
		{
			"buffer":0,
			"byteLength":1152,
			"byteOffset":47848,
			"target":34962
		}
	],
	"samplers":[
		{
			"magFilter":9729,
			"minFilter":9987
		}
	],
	"buffers":[
		{
			"byteLength":49000,
			"uri":"chess4_5.bin"
		}
	]
}
